<?xml version="1.0" encoding="UTF-8"?>
<svg version="1.1" xmlns="http://www.w3.org/2000/svg" width="716" height="716">
<path d="M0 0 C236.28 0 472.56 0 716 0 C716 236.28 716 472.56 716 716 C479.72 716 243.44 716 0 716 C0 479.72 0 243.44 0 0 Z " fill="#F1EBD3" transform="translate(0,0)"/>
<path d="M0 0 C4.75399584 2.86727487 9.0084471 6.31807138 13.3125 9.8125 C14.64674809 10.88850129 15.98138157 11.9640249 17.31640625 13.0390625 C18.27184326 13.80911621 18.27184326 13.80911621 19.24658203 14.59472656 C21.39559116 16.31704577 23.56829815 18.00683999 25.75 19.6875 C34.22796344 26.25159483 42.4160754 33.16561969 50.56640625 40.12890625 C51.10539551 40.56662354 51.64438477 41.00434082 52.19970703 41.45532227 C54 43 54 43 56.03076172 45.10522461 C62.45306556 51.24437126 68.00218141 51.8079613 76.4765625 51.61914062 C78.74125394 51.53601694 81.00473316 51.43728249 83.26855469 51.33325195 C97.64881846 50.76495439 97.64881846 50.76495439 103.32421875 55.796875 C104.91270329 57.50391571 106.46985505 59.24047519 108 61 C109.4235025 62.44919578 110.87247688 63.86946958 112.32424927 65.29029846 C114.84999327 67.7682186 117.32758473 70.29374896 119.8125 72.8125 C121.81602429 74.84282729 123.82300643 76.86964832 125.83203125 78.89453125 C126.70577393 79.77987549 127.5795166 80.66521973 128.47973633 81.57739258 C130.96626103 84.04950645 130.96626103 84.04950645 133.78588867 86.18041992 C136 88 136 88 136.59375 90.21875 C136.44967028 93.72468985 136.33742206 96.32515589 134.75 99.5 C131.62066117 102.18229042 128.24227302 102.1212099 124.25 102.0625 C123.45078125 102.05347656 122.6515625 102.04445313 121.828125 102.03515625 C121.22484375 102.02355469 120.6215625 102.01195312 120 102 C120.00276538 103.08171824 120.00276538 103.08171824 120.00558662 104.18528938 C120.04976717 121.73734264 120.08285732 139.28938175 120.10362434 156.84147835 C120.11393421 165.32956057 120.12798902 173.81760567 120.15087891 182.30566406 C120.17082163 189.70438375 120.18371854 197.10307654 120.18817699 204.50182235 C120.19078287 208.41891362 120.19690182 212.33592794 120.21146011 216.25299454 C120.22505796 219.94160841 120.22921819 223.63011382 120.22621536 227.31875038 C120.22702594 229.31432607 120.23777605 231.30989 120.24884033 233.30543518 C120.246091 234.50007889 120.24334167 235.6947226 120.24050903 236.92556763 C120.24327441 238.47694522 120.24327441 238.47694522 120.24609566 240.05966377 C119.76746138 245.77835753 117.93042763 249.84497651 114 254 C109.48522114 257.51703844 105.58187521 257.42482982 100.10050964 257.38095093 C99.20350053 257.3856309 98.30649141 257.39031087 97.3823002 257.39513266 C94.37605436 257.40710012 91.37026291 257.39761839 88.36401367 257.38818359 C86.20879348 257.3922486 84.05357536 257.39759007 81.89836121 257.40411377 C76.04288312 257.41780404 70.18756341 257.41248094 64.33208251 257.40297651 C58.2045637 257.3953859 52.07705853 257.40242414 45.94953918 257.40713501 C35.65570643 257.41259553 25.3619382 257.40539443 15.06811523 257.39111328 C3.17171364 257.37479924 -8.72453361 257.38006509 -20.62093145 257.3965925 C-30.83509892 257.4102144 -41.04921996 257.41212317 -51.26339358 257.40427649 C-57.36358238 257.39960219 -63.4636987 257.39896824 -69.56388283 257.40888596 C-75.30209115 257.41756304 -81.04010097 257.4115199 -86.77828789 257.39420319 C-88.88254085 257.39024179 -90.98681056 257.39136644 -93.09105682 257.39799118 C-95.96744841 257.40621065 -98.84320724 257.39587985 -101.71955872 257.38095093 C-102.54885401 257.38764309 -103.37814931 257.39433526 -104.23257476 257.40123022 C-110.69468468 257.33634935 -116.56941405 256.36662316 -121.375 251.6875 C-124.2833049 246.87761112 -125.25046227 242.50933193 -125.24050903 236.92556763 C-125.24325836 235.73092392 -125.24600769 234.53628021 -125.24884033 233.30543518 C-125.24164978 232.0085527 -125.23445923 230.71167023 -125.22705078 229.37548828 C-125.22648617 227.98545846 -125.2268042 226.59542804 -125.22793579 225.20539856 C-125.22850836 221.44342452 -125.21676963 217.68157866 -125.20278788 213.91963434 C-125.1902645 209.98385427 -125.18910875 206.04807109 -125.18673706 202.11227417 C-125.18052701 194.6644678 -125.16412263 187.21672032 -125.14403808 179.76893985 C-125.12166429 171.28771281 -125.11068193 162.80648292 -125.10064721 154.3252337 C-125.07975598 136.8834551 -125.04458925 119.44173378 -125 102 C-125.68634521 102.02175293 -126.37269043 102.04350586 -127.07983398 102.06591797 C-127.98032471 102.08283691 -128.88081543 102.09975586 -129.80859375 102.1171875 C-130.70118896 102.13894043 -131.59378418 102.16069336 -132.51342773 102.18310547 C-136.01705833 101.92510616 -137.67388147 100.55122678 -140 98 C-141.6537128 94.69257439 -141.53363009 92.6761184 -141 89 C-138.66206327 85.94843337 -136.04141339 83.35129349 -133 81 C-132.34 81 -131.68 81 -131 81 C-131 80.34 -131 79.68 -131 79 C-129.57739258 77.60083008 -129.57739258 77.60083008 -127.58203125 75.95703125 C-122.68029747 71.78963961 -118.19683412 67.27155382 -113.6875 62.6875 C-112.11042246 61.08492403 -110.53109404 59.48455913 -108.94921875 57.88671875 C-108.26174561 57.18764404 -107.57427246 56.48856934 -106.8659668 55.76831055 C-104.11164378 53.15813632 -102.63277286 52.02209242 -98.77636719 51.88745117 C-97.46313477 51.93877197 -96.14990234 51.99009277 -94.796875 52.04296875 C-76.80691997 53.26468793 -76.80691997 53.26468793 -60.81005859 46.74169922 C-58.52881155 44.46810095 -56.39614898 42.12875753 -54.37060547 39.62451172 C-52.37874409 37.26365571 -50.05838526 35.45275081 -47.625 33.5625 C-43.0244069 29.83302512 -38.44483827 26.07953581 -33.875 22.3125 C-33.16158447 21.7251709 -32.44816895 21.1378418 -31.71313477 20.53271484 C-27.87037976 17.36869686 -24.0320574 14.19946239 -20.19921875 11.0234375 C-19.42271973 10.38108154 -18.6462207 9.73872559 -17.84619141 9.0769043 C-16.34846224 7.83776318 -14.85199723 6.59709218 -13.35693359 5.35473633 C-12.34687256 4.51978638 -12.34687256 4.51978638 -11.31640625 3.66796875 C-10.72287354 3.17578857 -10.12934082 2.6836084 -9.51782227 2.17651367 C-6.33244768 -0.29257433 -3.98280156 -0.38296169 0 0 Z " fill="#213F29" transform="translate(361,168)"/>
<path d="M0 0 C66.99 0 133.98 0 203 0 C203 43.89 203 87.78 203 133 C180.23 133 157.46 133 134 133 C133.6875 105.75 133.6875 105.75 133.61206055 97.15917969 C133.57977719 94.91339443 133.54640441 92.66762444 133.51171875 90.421875 C133.50547485 89.25479004 133.49923096 88.08770508 133.49279785 86.88525391 C133.47285767 85.76908691 133.45291748 84.65291992 133.43237305 83.50292969 C133.42126999 82.53474304 133.41016693 81.5665564 133.39872742 80.56903076 C132.92000053 77.48455739 132.29015674 76.12530159 130 74 C127.42748891 73.40006789 127.42748891 73.40006789 124.47460938 73.49829102 C123.34333618 73.48891006 122.21206299 73.47952911 121.04650879 73.46986389 C119.82459839 73.48109787 118.60268799 73.49233185 117.34375 73.50390625 C116.0899353 73.50245102 114.83612061 73.50099579 113.54431152 73.49949646 C110.89080253 73.50115805 108.23872146 73.51066987 105.58544922 73.53344727 C102.18555198 73.56183316 98.78655274 73.55909539 95.38658905 73.54635715 C92.14308478 73.53772767 88.89972612 73.55284618 85.65625 73.56640625 C84.4343396 73.56347061 83.2124292 73.56053497 81.95349121 73.55751038 C80.25658142 73.57653664 80.25658142 73.57653664 78.52539062 73.59594727 C77.03005798 73.60405174 77.03005798 73.60405174 75.5045166 73.61231995 C72.99682005 73.82499741 72.99682005 73.82499741 71.1816864 75.18267822 C69.55178433 77.68931325 69.60113003 79.49942777 69.56762695 82.48120117 C69.54768677 83.61779175 69.52774658 84.75438232 69.50720215 85.92541504 C69.4978363 87.71610413 69.4978363 87.71610413 69.48828125 89.54296875 C69.47164429 90.64080688 69.45500732 91.73864502 69.43786621 92.86975098 C69.37997935 96.97547191 69.34779297 101.08152269 69.3125 105.1875 C69.209375 114.365625 69.10625 123.54375 69 133 C46.23 133 23.46 133 0 133 C0 89.11 0 45.22 0 0 Z " fill="#EEE9D3" transform="translate(257,270)"/>
<path d="M0 0 C3.5386994 1.65139305 4.81070153 2.71605229 7 6 C6.80343281 11.30731422 5.62522223 14.14089246 2 18 C3.43986995 21.74366186 5.87350302 23.9693114 8.7578125 26.6328125 C10 28 10 28 10 30 C10.59554687 30.26554687 11.19109375 30.53109375 11.8046875 30.8046875 C14.06329384 32.03446248 15.38744356 33.24774053 17.125 35.125 C50.59802524 69.3748254 100.78043169 86.7977099 147.76757812 87.35400391 C172.10090212 87.51884888 193.78937207 84.6190631 217 77 C218.23234375 76.59910156 219.4646875 76.19820313 220.734375 75.78515625 C230.63454118 72.25476704 239.82657313 67.07741244 249 62 C249.66821777 61.63390625 250.33643555 61.2678125 251.02490234 60.890625 C259.98869263 55.93360504 268.025675 50.10813495 276.01196289 43.69628906 C276.73375732 43.11717773 277.45555176 42.53806641 278.19921875 41.94140625 C278.83690186 41.42263916 279.47458496 40.90387207 280.1315918 40.36938477 C282.01204754 38.99117017 283.88791091 37.97807367 286 37 C286 36.34 286 35.68 286 35 C287.609375 33.44921875 287.609375 33.44921875 289.75 31.6875 C292.91761349 29.01237765 295.43092965 26.26074314 298 23 C298.66 23 299.32 23 300 23 C300 22.34 300 21.68 300 21 C300.66 21 301.32 21 302 21 C301.61714409 17.68191547 300.74020962 16.72165316 298.375 14.1875 C296 11 296 11 296 7.3125 C297.35229358 2.83302752 297.35229358 2.83302752 300 1 C304.6016966 -0.53389887 308.40087761 -0.74479673 312.8515625 1.328125 C318.58618638 5.30197704 323.90730071 9.49037907 329.0625 14.1875 C329.6105127 14.68604492 330.15852539 15.18458984 330.72314453 15.69824219 C334.25520688 19.02162689 337.41146074 22.20046188 338.43359375 27.0625 C338.44088205 30.67749502 338.14280176 32.72582062 336.4375 36 C334 38 334 38 330.5 38.5 C326.85152187 37.97878884 325.78139109 37.20593087 323 35 C321.08929472 34.90960529 321.08929472 34.90960529 319 36 C317.08915719 38.02028737 315.35796261 40.02417925 313.625 42.1875 C304.98382284 52.61878969 295.45485676 62.37116274 285 71 C284.20916016 71.66950684 284.20916016 71.66950684 283.40234375 72.35253906 C263.02156747 89.59696478 240.85851181 103.40864119 215.99902344 113.20849609 C214.36863197 113.85404191 212.74897928 114.52665586 211.1328125 115.20703125 C171.05123339 131.27807974 121.8797594 127.81213377 82.71484375 111.1015625 C75.66578734 107.99888902 68.80028963 104.61173625 62 101 C61.36175293 100.6695166 60.72350586 100.3390332 60.06591797 99.99853516 C42.77917896 91.01880555 27.41429688 79.03287642 13 66 C12.3601416 65.42185547 11.7202832 64.84371094 11.06103516 64.24804688 C3.97859202 57.81415392 -2.88890268 51.37915001 -9 44 C-10.47391423 42.32868655 -11.95320502 40.66210115 -13.4375 39 C-14.11683594 38.236875 -14.79617187 37.47375 -15.49609375 36.6875 C-15.99238281 36.130625 -16.48867187 35.57375 -17 35 C-20.54518884 36.39759905 -20.54518884 36.39759905 -24 38 C-27.375 38.375 -27.375 38.375 -31 38 C-34.34768653 35.25318028 -34.92494168 33.45785573 -35.625 29.1875 C-35.16018812 21.65191341 -28.96530635 16.81716332 -23.8125 11.9375 C-8.35343199 -1.6706864 -8.35343199 -1.6706864 0 0 Z " fill="#203F29" transform="translate(207,409)"/>
<path d="M0 0 C2.640625 1.46875 2.640625 1.46875 5.25 3.5 C6.20390625 4.23347656 7.1578125 4.96695313 8.140625 5.72265625 C9.08421875 6.47417969 10.0278125 7.22570312 11 8 C12.26070312 8.98806641 12.26070312 8.98806641 13.546875 9.99609375 C16.04900388 11.97628173 18.52563105 13.98526615 21 16 C21.87398438 16.69867188 22.74796875 17.39734375 23.6484375 18.1171875 C29.71081705 22.99835842 35.48390248 28.11367953 41.18359375 33.40625 C44.28630473 36.26367037 47.45768319 39.02705604 50.671875 41.7578125 C51.32929688 42.37269531 51.32929688 42.37269531 52 43 C52 43.33 52 43.66 52 44 C39.46 44 26.92 44 14 44 C13.67 39.38 13.34 34.76 13 30 C10.84797953 24.85052244 8.95710523 22.44314472 4 20 C1.05075193 19.52917564 1.05075193 19.52917564 -2 19.625 C-3.010625 19.61726563 -4.02125 19.60953125 -5.0625 19.6015625 C-9.67459627 20.22713939 -12.22037932 22.11209868 -15.25 25.5625 C-19.96155904 32.12502866 -18.19014419 32.6620186 -19 44 C-31.21 44 -43.42 44 -56 44 C-49.24956486 36.12449233 -49.24956486 36.12449233 -46.58984375 33.859375 C-45.70401611 33.09826416 -45.70401611 33.09826416 -44.80029297 32.32177734 C-44.18557129 31.80309082 -43.57084961 31.2844043 -42.9375 30.75 C-42.28410645 30.19135254 -41.63071289 29.63270508 -40.95751953 29.05712891 C-38.97638077 27.36579586 -36.98894456 25.68214195 -35 24 C-33.86311779 23.03404652 -32.72639011 22.06791112 -31.58984375 21.1015625 C-29.46978667 19.30163435 -27.34589754 17.50638564 -25.21875 15.71484375 C-22.9420346 13.79720291 -20.67221399 11.87173955 -18.40625 9.94140625 C-17.81537598 9.43883301 -17.22450195 8.93625977 -16.61572266 8.41845703 C-15.4841807 7.45577351 -14.35359259 6.49196732 -13.22412109 5.52685547 C-5.95139636 -0.65139662 -5.95139636 -0.65139662 0 0 Z " fill="#EDE9D3" transform="translate(361,197)"/>
<path d="M0 0 C1.44922852 -0.0009668 1.44922852 -0.0009668 2.92773438 -0.00195312 C3.92998047 0.01802734 4.93222656 0.03800781 5.96484375 0.05859375 C6.97095703 0.05150391 7.97707031 0.04441406 9.01367188 0.03710938 C16.20725726 0.09957872 16.20725726 0.09957872 18.69213867 1.51708984 C20.6256848 4.6789468 20.28841242 8.00032113 20.23046875 11.59375 C20.22859558 12.38381943 20.22672241 13.17388885 20.22479248 13.98789978 C20.21807482 15.65644558 20.20416589 17.32497571 20.18359375 18.9934082 C20.15241927 21.55239435 20.14262053 24.1107646 20.13671875 26.66992188 C20.12754936 28.29037212 20.11717379 29.91081609 20.10546875 31.53125 C20.09909393 32.68283348 20.09909393 32.68283348 20.09259033 33.85768127 C20.01955889 39.26166347 20.01955889 39.26166347 18.90234375 41.49609375 C14.61080353 41.58284995 10.31948707 41.63640265 6.02734375 41.68359375 C4.19236328 41.72129883 4.19236328 41.72129883 2.3203125 41.75976562 C0.57041016 41.77426758 0.57041016 41.77426758 -1.21484375 41.7890625 C-2.83302002 41.81262817 -2.83302002 41.81262817 -4.48388672 41.83666992 C-5.77770264 41.66808472 -5.77770264 41.66808472 -7.09765625 41.49609375 C-9.52217497 37.85931566 -9.42050617 35.11467778 -9.43359375 30.90625 C-9.44025055 30.16531601 -9.44690735 29.42438202 -9.45376587 28.66099548 C-9.46388319 27.09506714 -9.46858317 25.52909576 -9.46826172 23.96313477 C-9.47263467 21.57040226 -9.50895892 19.17951548 -9.546875 16.78710938 C-9.55274352 15.26432921 -9.55671268 13.74154031 -9.55859375 12.21875 C-9.57296478 11.50509781 -9.58733582 10.79144562 -9.60214233 10.0561676 C-9.5716548 6.73295103 -9.30756014 4.79700094 -7.38745117 2.04443359 C-4.68313604 0.21579871 -3.24220873 -0.00681448 0 0 Z " fill="#223F29" transform="translate(286.09765625,346.50390625)"/>
<path d="M0 0 C1.50336914 -0.0299707 1.50336914 -0.0299707 3.03710938 -0.06054688 C4.00326172 -0.05990234 4.96941406 -0.05925781 5.96484375 -0.05859375 C6.84648193 -0.06044678 7.72812012 -0.0622998 8.63647461 -0.06420898 C12.00596867 0.63261202 13.10261202 1.60972158 15.0625 4.4375 C15.43615303 7.23332593 15.57769744 9.62513197 15.5234375 12.4140625 C15.52206284 13.56375015 15.52206284 13.56375015 15.5206604 14.73666382 C15.51463184 16.35217505 15.49890798 17.96767549 15.47412109 19.58300781 C15.4375227 22.0609634 15.43310243 24.53742689 15.43359375 27.015625 C15.42376558 28.58595047 15.41210988 30.15626579 15.3984375 31.7265625 C15.39621185 32.46927399 15.39398621 33.21198547 15.39169312 33.97720337 C15.29468482 39.20531518 15.29468482 39.20531518 13.0625 41.4375 C10.57226562 41.69628906 10.57226562 41.69628906 7.46875 41.703125 C6.35628906 41.70570313 5.24382812 41.70828125 4.09765625 41.7109375 C2.93105469 41.70320313 1.76445312 41.69546875 0.5625 41.6875 C-0.60410156 41.69523437 -1.77070313 41.70296875 -2.97265625 41.7109375 C-4.08511719 41.70835937 -5.19757813 41.70578125 -6.34375 41.703125 C-7.36791016 41.70086914 -8.39207031 41.69861328 -9.44726562 41.69628906 C-11.9375 41.4375 -11.9375 41.4375 -13.9375 39.4375 C-14.14952418 36.7479026 -14.24147614 34.16386277 -14.23828125 31.47265625 C-14.24256638 30.68354355 -14.2468515 29.89443085 -14.25126648 29.08140564 C-14.25701363 27.41113241 -14.25750721 25.74083414 -14.25317383 24.07055664 C-14.25001655 21.51340028 -14.27345751 18.9574036 -14.29882812 16.40039062 C-14.30110134 14.7786473 -14.30180451 13.15690085 -14.30078125 11.53515625 C-14.309991 10.76945816 -14.31920074 10.00376007 -14.32868958 9.21485901 C-14.28321617 4.00181237 -14.28321617 4.00181237 -12.72509766 1.45849609 C-8.90439908 -0.72371661 -4.27966832 -0.03015782 0 0 Z " fill="#213F28" transform="translate(424.9375,346.5625)"/>
<path d="M0 0 C1.34094727 -0.03577148 1.34094727 -0.03577148 2.70898438 -0.07226562 C3.57716797 -0.07033203 4.44535156 -0.06839844 5.33984375 -0.06640625 C6.51921509 -0.0674939 6.51921509 -0.0674939 7.72241211 -0.06860352 C11.31770117 0.901018 12.81230772 2.64555685 15.0625 5.5625 C15.67773438 8.91235352 15.67773438 8.91235352 15.65625 12.69140625 C15.65629028 13.36292221 15.65633057 14.03443817 15.65637207 14.7263031 C15.65103343 16.13916435 15.63352098 17.55202651 15.60449219 18.96459961 C15.56254845 21.12250757 15.56343362 23.27729895 15.5703125 25.43554688 C15.49218347 35.69005611 15.49218347 35.69005611 13.87524414 38.97314453 C11.38936143 41.15268614 9.86645022 41.03718582 6.58984375 40.98828125 C4.99366211 40.97571289 4.99366211 40.97571289 3.36523438 40.96289062 C2.25470703 40.93388672 1.14417969 40.90488281 0 40.875 C-1.11439453 40.86533203 -2.22878906 40.85566406 -3.37695312 40.84570312 C-11.60049517 40.73100242 -11.60049517 40.73100242 -13.9375 39.5625 C-14.03648615 34.65126411 -14.10902247 29.74061062 -14.15722656 24.82861328 C-14.17732393 23.15826298 -14.20460683 21.48798287 -14.23925781 19.81787109 C-14.28786119 17.4148628 -14.31048656 15.01278566 -14.328125 12.609375 C-14.34877014 11.86443787 -14.36941528 11.11950073 -14.39068604 10.35198975 C-14.39216181 6.93066134 -14.19257163 4.92473253 -12.19995117 2.0949707 C-8.32646753 -0.52873242 -4.54626379 -0.05548204 0 0 Z " fill="#203E28" transform="translate(424.9375,283.4375)"/>
<path d="M0 0 C1.34094727 -0.03577148 1.34094727 -0.03577148 2.70898438 -0.07226562 C3.57716797 -0.07033203 4.44535156 -0.06839844 5.33984375 -0.06640625 C6.51921509 -0.0674939 6.51921509 -0.0674939 7.72241211 -0.06860352 C11.33748149 0.9063526 12.81420098 2.61329242 15.0625 5.5625 C15.52701371 8.3255524 15.69885223 10.45329596 15.62109375 13.19921875 C15.61759666 14.28019585 15.61759666 14.28019585 15.61402893 15.38301086 C15.60432454 16.8984469 15.58261331 18.41384846 15.54956055 19.92895508 C15.49992932 22.2533099 15.48806528 24.57555246 15.48242188 26.90039062 C15.46834326 28.37502262 15.4521415 29.8496362 15.43359375 31.32421875 C15.42823105 32.02004562 15.42286835 32.7158725 15.41734314 33.43278503 C15.29586509 38.32913491 15.29586509 38.32913491 13.0625 40.5625 C9.10201178 41.01905797 5.1087619 40.88652042 1.125 40.875 C-0.54079102 40.89916992 -0.54079102 40.89916992 -2.24023438 40.92382812 C-3.30435547 40.92447266 -4.36847656 40.92511719 -5.46484375 40.92578125 C-6.44187256 40.92876221 -7.41890137 40.93174316 -8.42553711 40.93481445 C-10.9375 40.5625 -10.9375 40.5625 -12.75244141 39.50048828 C-14.56213651 36.54099926 -14.38534394 33.55926518 -14.37109375 30.19140625 C-14.3763356 29.4726683 -14.38157745 28.75393036 -14.38697815 28.01341248 C-14.39339606 26.49455048 -14.39206425 24.97563877 -14.38354492 23.45678711 C-14.37504142 21.13630314 -14.403783 18.81828714 -14.43554688 16.49804688 C-14.43715924 15.02083407 -14.43658069 13.54361692 -14.43359375 12.06640625 C-14.44482773 11.37462784 -14.45606171 10.68284943 -14.46763611 9.97010803 C-14.42017874 6.67827821 -14.12992626 4.83099174 -12.19335938 2.12890625 C-8.33900423 -0.54745117 -4.5549809 -0.05558842 0 0 Z " fill="#213F29" transform="translate(290.9375,283.4375)"/>
<path d="M0 0 C0.7528125 0.01289063 1.505625 0.02578125 2.28125 0.0390625 C3.0340625 0.02617187 3.786875 0.01328125 4.5625 0 C7.91298656 1.00278647 8.90187263 2.75829321 10.78125 5.6640625 C11.17190148 8.31901843 11.34400085 10.5484578 11.3125 13.1953125 C11.3163269 13.90884888 11.32015381 14.62238525 11.32409668 15.35754395 C11.32680847 16.86028461 11.31949854 18.36307306 11.30273438 19.86572266 C11.28130992 22.15765237 11.30255639 24.44644829 11.328125 26.73828125 C11.32548159 28.20313187 11.32035632 29.66798056 11.3125 31.1328125 C11.32059692 31.81315552 11.32869385 32.49349854 11.33703613 33.19445801 C11.26911612 36.66445441 10.81906245 38.60366818 8.96289062 41.56835938 C5.93998778 44.47218637 3.93108454 44.73686661 -0.21875 44.6640625 C-3.02064446 42.89765078 -4.73399911 41.63356428 -6.21875 38.6640625 C-6.3536998 36.24185323 -6.43129926 33.849658 -6.45703125 31.42578125 C-6.465103 30.70800003 -6.47317474 29.99021881 -6.48149109 29.25068665 C-6.49532786 27.73005587 -6.50605185 26.20939409 -6.51391602 24.6887207 C-6.53110842 22.37065208 -6.57499181 20.05401781 -6.61914062 17.73632812 C-6.62926977 16.25782297 -6.63778519 14.77930571 -6.64453125 13.30078125 C-6.66203934 12.61102707 -6.67954742 11.92127289 -6.69758606 11.21061707 C-6.68162096 7.64248563 -6.27939105 5.75836078 -4.33081055 2.72827148 C-2.21875 0.6640625 -2.21875 0.6640625 0 0 Z " fill="#213E28" transform="translate(342.21875,282.3359375)"/>
<path d="M0 0 C3.37811181 1.01280447 4.8821558 2.93453636 7.09765625 5.62890625 C7.59882661 8.35376005 7.80210836 10.44517066 7.76171875 13.16015625 C7.76650238 13.87369263 7.77128601 14.587229 7.7762146 15.3223877 C7.77960435 16.82513647 7.77046633 18.32795991 7.74951172 19.83056641 C7.72272408 22.123101 7.74928156 24.41074159 7.78125 26.703125 C7.77794573 28.16797949 7.77153911 29.63283095 7.76171875 31.09765625 C7.7718399 31.77799927 7.78196106 32.45834229 7.79238892 33.15930176 C7.69932994 36.96276796 7.1685176 38.54174194 4.73974609 41.52929688 C1.62574523 44.00392332 0.08289811 44.79156918 -3.90234375 44.62890625 C-6.4432827 43.00744567 -8.07177203 41.92703019 -9.90234375 39.62890625 C-10.49334933 36.67872266 -10.70327557 34.56120573 -10.62890625 31.625 C-10.62990326 30.86469986 -10.63090027 30.10439972 -10.63192749 29.32106018 C-10.62726239 27.71987407 -10.60790027 26.11867109 -10.57470703 24.51782227 C-10.52740916 22.06979167 -10.53360202 19.62610744 -10.546875 17.17773438 C-10.53572298 15.61846368 -10.52150413 14.05921127 -10.50390625 12.5 C-10.50572906 11.77074814 -10.50755188 11.04149628 -10.50942993 10.29014587 C-10.41502328 6.90150573 -10.12931657 4.94016646 -8.11083984 2.17211914 C-5.45044926 0.3131396 -3.21163758 0.10854441 0 0 Z " fill="#233F2A" transform="translate(373.90234375,282.37109375)"/>
<path d="M0 0 C5.94 0 11.88 0 18 0 C18 10.89 18 21.78 18 33 C12.06 33 6.12 33 0 33 C0 22.11 0 11.22 0 0 Z " fill="#F0EBD5" transform="translate(350,370)"/>
<path d="M0 0 C0.33 0 0.66 0 1 0 C1.17248597 12.64575876 1.33888974 25.29159122 1.5 37.9375 C1.51187725 38.86948967 1.5237545 39.80147934 1.53599167 40.76171112 C1.91742508 70.84282061 2.14933953 100.91612702 2 131 C2.73347656 130.83250244 3.46695312 130.66500488 4.22265625 130.49243164 C6.78483721 130.03814903 8.855364 129.9574727 11.4375 130.12109375 C12.31535156 130.16951416 13.19320313 130.21793457 14.09765625 130.26782227 C15.05542969 130.32381592 16.01320313 130.37980957 17 130.4375 C28.33806065 131.01580625 39.64984001 131.0887937 51 131.0625 C51.84288574 131.0606369 52.68577148 131.0587738 53.55419922 131.05685425 C58.36950867 131.04470801 63.18474272 131.02533936 68 131 C68.33 131.66 68.66 132.32 69 133 C46.23 133 23.46 133 0 133 C0 89.11 0 45.22 0 0 Z " fill="#D1D8C6" transform="translate(257,270)"/>
<path d="M0 0 C1.7115477 0.0001133 1.7115477 0.0001133 3.45767212 0.00022888 C4.69415497 0.00539017 5.93063782 0.01055145 7.20458984 0.01586914 C8.46693451 0.01728409 9.72927917 0.01869904 11.02987671 0.02015686 C14.38691033 0.02481461 17.74387635 0.03380131 21.10089111 0.04486084 C24.52607641 0.05508769 27.95126868 0.05965721 31.37646484 0.06469727 C38.09783777 0.07574301 44.81917865 0.09249346 51.54052734 0.11352539 C51.21052734 0.77352539 50.88052734 1.43352539 50.54052734 2.11352539 C49.90239105 2.10686356 49.26425476 2.10020172 48.60678101 2.09333801 C41.95567877 2.0268869 35.3046711 1.98168405 28.65332031 1.94873047 C26.17216154 1.93365877 23.69102935 1.91319793 21.20996094 1.88720703 C17.64039545 1.85075372 14.07118273 1.83378247 10.50146484 1.82055664 C9.39499603 1.80507278 8.28852722 1.78958893 7.14852905 1.77363586 C1.43548869 1.77239187 -2.63016689 1.93673624 -7.45947266 5.11352539 C-7.45947266 3.79352539 -7.45947266 2.47352539 -7.45947266 1.11352539 C-4.84425481 -0.19408353 -2.92833865 -0.00645009 0 0 Z " fill="#2C412D" transform="translate(335.45947265625,342.886474609375)"/>
<path d="M0 0 C0.33 0.99 0.66 1.98 1 3 C-0.25942386 4.19959375 -1.53295286 5.38439443 -2.8125 6.5625 C-3.87404297 7.55443359 -3.87404297 7.55443359 -4.95703125 8.56640625 C-5.63121094 9.03949219 -6.30539062 9.51257813 -7 10 C-7.99 9.67 -8.98 9.34 -10 9 C-6.83047153 5.73991357 -3.60062011 2.77762123 0 0 Z " fill="#2C402C" transform="translate(352,170)"/>
<path d="M0 0 C0.99 0.33 1.98 0.66 3 1 C2.67 2.32 2.34 3.64 2 5 C1.01 5 0.02 5 -1 5 C-1.33 5.66 -1.66 6.32 -2 7 C-2.6875 5.1875 -2.6875 5.1875 -3 3 C-1.5625 1.25 -1.5625 1.25 0 0 Z " fill="#2B422C" transform="translate(507,410)"/>
<path d="M0 0 C0.33 0.99 0.66 1.98 1 3 C-2.465 4.485 -2.465 4.485 -6 6 C-6.66 5.34 -7.32 4.68 -8 4 C-5.36 2.68 -2.72 1.36 0 0 Z " fill="#DBE0CD" transform="translate(453,507)"/>
<path d="M0 0 C0.66 0.66 1.32 1.32 2 2 C-2.95 4.475 -2.95 4.475 -8 7 C-6.5361389 2.60841671 -4.02168662 2.12052567 0 0 Z " fill="#DADFCC" transform="translate(456,469)"/>
</svg>
